<svg id="Capa_1" data-name="Capa 1" xmlns="http://www.w3.org/2000/svg" xmlns:xlink="http://www.w3.org/1999/xlink" width="1145.888" height="1145.888" viewBox="0 0 1145.888 1145.888">
  <defs>
    <style>
      .cls-1 {
        fill: #fff;
      }

      .cls-2 {
        fill: url(#linear-gradient);
      }

      .cls-3 {
        fill: url(#linear-gradient-2);
      }

      .cls-4 {
        fill: url(#linear-gradient-3);
      }

      .cls-5 {
        fill: url(#linear-gradient-4);
      }

      .cls-6 {
        fill: url(#linear-gradient-5);
      }

      .cls-7 {
        fill: url(#linear-gradient-6);
      }

      .cls-8 {
        fill: url(#linear-gradient-7);
      }

      .cls-9 {
        fill: url(#linear-gradient-8);
      }
    </style>
    <linearGradient id="linear-gradient" x1="404.97" y1="718.749" x2="404.97" y2="250.023" gradientUnits="userSpaceOnUse">
      <stop offset="0" stop-color="#00b1ff"/>
      <stop offset="0.994" stop-color="#00ffda"/>
    </linearGradient>
    <linearGradient id="linear-gradient-2" x1="456.007" y1="703.233" x2="456.007" y2="251.426" xlink:href="#linear-gradient"/>
    <linearGradient id="linear-gradient-3" x1="689.88" y1="703.233" x2="689.88" y2="251.426" xlink:href="#linear-gradient"/>
    <linearGradient id="linear-gradient-4" x1="456.008" y1="717.347" x2="456.008" y2="265.539" xlink:href="#linear-gradient"/>
    <linearGradient id="linear-gradient-5" x1="572.944" y1="719.443" x2="572.944" y2="247.229" xlink:href="#linear-gradient"/>
    <linearGradient id="linear-gradient-6" x1="740.917" y1="718.749" x2="740.917" y2="250.023" xlink:href="#linear-gradient"/>
    <linearGradient id="linear-gradient-7" x1="689.88" y1="717.347" x2="689.88" y2="265.539" xlink:href="#linear-gradient"/>
    <linearGradient id="linear-gradient-8" x1="572.944" y1="721.547" x2="572.944" y2="245.449" xlink:href="#linear-gradient"/>
  </defs>
  <g>
    <g>
      <path class="cls-1" d="M146.254,895.165V819.177a2.958,2.958,0,0,1,2.958-2.958h13.863a2.959,2.959,0,0,1,2.266,1.058l24.6,29.337a2.958,2.958,0,0,0,4.537,0l24.49-29.328a2.959,2.959,0,0,1,2.271-1.062H235.21a2.958,2.958,0,0,1,2.958,2.958v75.988a2.958,2.958,0,0,1-2.958,2.958H223.379a2.957,2.957,0,0,1-2.957-2.958v-43.85a2.958,2.958,0,0,0-5.225-1.9L194.47,874.155a2.958,2.958,0,0,1-4.528.008L169.1,849.475a2.958,2.958,0,0,0-5.218,1.908v43.782a2.957,2.957,0,0,1-2.957,2.958H149.212A2.958,2.958,0,0,1,146.254,895.165Z"/>
      <path class="cls-1" d="M268.426,895.165V819.177a2.958,2.958,0,0,1,2.958-2.958h11.489a2.958,2.958,0,0,1,2.958,2.958v75.988a2.958,2.958,0,0,1-2.958,2.958H271.384A2.958,2.958,0,0,1,268.426,895.165Z"/>
      <path class="cls-1" d="M333.72,895.165V836.923a2.958,2.958,0,0,0-2.958-2.958H304.6a2.958,2.958,0,0,1-2.958-2.957V819.177a2.959,2.959,0,0,1,2.958-2.958h75.989a2.958,2.958,0,0,1,2.957,2.958v11.831a2.957,2.957,0,0,1-2.957,2.957H354.424a2.958,2.958,0,0,0-2.957,2.958v58.242a2.958,2.958,0,0,1-2.958,2.958H336.678A2.958,2.958,0,0,1,333.72,895.165Z"/>
      <path class="cls-1" d="M420.058,898.123a16.9,16.9,0,0,1-16.836-16.836v-4.664a2.957,2.957,0,0,1,2.958-2.957H417.9a2.957,2.957,0,0,1,2.957,2.957h0v.8a2.958,2.958,0,0,0,2.958,2.958h40.5a2.958,2.958,0,0,0,2.958-2.958V869a2.958,2.958,0,0,0-2.958-2.958H420.058a16.9,16.9,0,0,1-16.836-16.836V833.055a16.9,16.9,0,0,1,16.836-16.836H468.29a16.995,16.995,0,0,1,16.836,16.836v4.664a2.957,2.957,0,0,1-2.957,2.958H470.224a2.957,2.957,0,0,1-2.957-2.958h0v-.8a2.958,2.958,0,0,0-2.958-2.958h-40.5a2.959,2.959,0,0,0-2.958,2.958v8.418a2.958,2.958,0,0,0,2.958,2.957H468.29a16.995,16.995,0,0,1,16.836,16.836v16.153a16.993,16.993,0,0,1-16.836,16.836Z"/>
      <path class="cls-1" d="M525.622,898.123a16.894,16.894,0,0,1-16.836-16.836V833.055a16.9,16.9,0,0,1,16.836-16.836h48.232a17,17,0,0,1,16.836,16.836v48.232a17,17,0,0,1-16.836,16.836Zm4.549-17.746h39.7a2.958,2.958,0,0,0,2.958-2.958v-40.5a2.958,2.958,0,0,0-2.958-2.958h-40.5a2.958,2.958,0,0,0-2.957,2.958v40.5a2.957,2.957,0,0,0,2.957,2.958Z"/>
      <path class="cls-1" d="M645.29,895.165v-63.7a2.957,2.957,0,0,0-2.957-2.958H613.44a2.958,2.958,0,0,1-2.958-2.958v-6.37a2.958,2.958,0,0,1,2.958-2.958h75.986a2.958,2.958,0,0,1,2.958,2.958v6.37a2.958,2.958,0,0,1-2.958,2.958H660.533a2.957,2.957,0,0,0-2.957,2.958v63.7a2.958,2.958,0,0,1-2.958,2.958h-6.37A2.958,2.958,0,0,1,645.29,895.165Z"/>
      <path class="cls-1" d="M712.519,895.165V819.177a2.958,2.958,0,0,1,2.958-2.958h69.162a2.958,2.958,0,0,1,2.958,2.958v6.37a2.958,2.958,0,0,1-2.958,2.958H727.875a2.958,2.958,0,0,0-2.958,2.958v16.608a2.958,2.958,0,0,0,2.958,2.957h44.479a2.958,2.958,0,0,1,2.958,2.958v6.37a2.958,2.958,0,0,1-2.958,2.958H727.875a2.958,2.958,0,0,0-2.958,2.958V882.88a2.958,2.958,0,0,0,2.958,2.957h56.764A2.958,2.958,0,0,1,787.6,888.8v6.37a2.958,2.958,0,0,1-2.958,2.958H715.477A2.958,2.958,0,0,1,712.519,895.165Z"/>
      <path class="cls-1" d="M825.59,898.123A14.756,14.756,0,0,1,810.8,883.335V831.008a14.758,14.758,0,0,1,14.787-14.789h63.931a2.958,2.958,0,0,1,2.958,2.958v6.37a2.958,2.958,0,0,1-2.958,2.958H827.3q-2.5,0-3.355.853t-.853,3.356v48.914q0,2.5.853,3.356t3.355.853h62.225a2.958,2.958,0,0,1,2.958,2.958v6.37a2.958,2.958,0,0,1-2.958,2.958Z"/>
      <path class="cls-1" d="M915.8,895.165V819.177a2.958,2.958,0,0,1,2.957-2.958h6.372a2.958,2.958,0,0,1,2.958,2.958v28.894a2.957,2.957,0,0,0,2.958,2.957h53.235a2.958,2.958,0,0,0,2.958-2.957V819.177a2.958,2.958,0,0,1,2.957-2.958h6.485a2.958,2.958,0,0,1,2.958,2.958v75.988a2.958,2.958,0,0,1-2.958,2.958h-6.485a2.957,2.957,0,0,1-2.957-2.958V866.272a2.958,2.958,0,0,0-2.958-2.958H931.041a2.958,2.958,0,0,0-2.958,2.958v28.893a2.958,2.958,0,0,1-2.958,2.958h-6.372A2.957,2.957,0,0,1,915.8,895.165Z"/>
    </g>
    <g>
      <path class="cls-2" d="M452.557,532.327V436.462a18.713,18.713,0,0,1-10.325-16.72c0-.364.034-.719.055-1.077l-77.144-44.539a5.172,5.172,0,0,0-7.759,4.479V590.184a5.173,5.173,0,0,0,7.759,4.479l77.144-44.54c-.021-.358-.055-.712-.055-1.076A18.713,18.713,0,0,1,452.557,532.327Z"/>
      <path class="cls-3" d="M462.039,401.066l78.291-135.6a5.172,5.172,0,0,0-7.065-7.065L373.548,350.609a5.173,5.173,0,0,0,0,8.959l77.128,44.53a18.632,18.632,0,0,1,10.286-3.086C461.326,401.012,461.681,401.046,462.039,401.066Z"/>
      <path class="cls-4" d="M695.212,404.1l77.128-44.53a5.173,5.173,0,0,0,0-8.959L612.623,258.4a5.172,5.172,0,0,0-7.065,7.065l78.291,135.6c.358-.02.714-.054,1.077-.054A18.627,18.627,0,0,1,695.212,404.1Z"/>
      <path class="cls-5" d="M450.676,564.691l-77.128,44.53a5.172,5.172,0,0,0,0,8.958l159.717,92.213a5.172,5.172,0,0,0,7.065-7.065L462.039,567.722c-.358.021-.713.055-1.077.055A18.632,18.632,0,0,1,450.676,564.691Z"/>
      <path class="cls-6" d="M479.638,420.819l83.02,47.932a18.685,18.685,0,0,1,20.572,0l83.022-47.932c-.021-.359-.055-.714-.055-1.077a18.633,18.633,0,0,1,3.086-10.287l-91.86-159.1a5.172,5.172,0,0,0-8.958,0l-91.859,159.1a18.63,18.63,0,0,1,3.086,10.287C479.692,420.105,479.658,420.46,479.638,420.819Z"/>
      <path class="cls-7" d="M780.745,374.126,703.6,418.665c.02.358.054.713.054,1.077a18.713,18.713,0,0,1-10.325,16.721v95.863a18.713,18.713,0,0,1,10.325,16.721c0,.364-.034.719-.054,1.077l77.143,44.539a5.172,5.172,0,0,0,7.758-4.479V378.605A5.172,5.172,0,0,0,780.745,374.126Z"/>
      <path class="cls-8" d="M683.849,567.722,605.558,703.327a5.172,5.172,0,0,0,7.065,7.065L772.34,618.179a5.172,5.172,0,0,0,0-8.958l-77.128-44.529a18.634,18.634,0,0,1-10.286,3.085C684.563,567.777,684.208,567.743,683.849,567.722Z"/>
      <path class="cls-9" d="M676.521,532.327V436.462a18.555,18.555,0,0,1-1.881-1.077l-83.02,47.932c.02.359.054.714.054,1.078a18.73,18.73,0,0,1-37.46,0c0-.364.035-.719.055-1.077l-83.021-47.933a18.66,18.66,0,0,1-1.882,1.078v95.863a18.7,18.7,0,0,1,7.24,27.008l91.859,159.1a5.172,5.172,0,0,0,8.958,0l91.86-159.105a18.7,18.7,0,0,1,7.238-27.006Z"/>
    </g>
  </g>
</svg>
